<svg version="1.1" xmlns="http://www.w3.org/2000/svg" xmlns:xlink="http://www.w3.org/1999/xlink" width="604" height="316"><defs/><g><text fill="#eeeeee" stroke="none" font-family="Arial" font-size="24px" font-style="normal" font-weight="normal" text-decoration="none" x="0" y="0">UNREGISTERED</text><text fill="#eeeeee" stroke="none" font-family="Arial" font-size="24px" font-style="normal" font-weight="normal" text-decoration="none" x="0" y="30">UNREGISTERED</text><text fill="#eeeeee" stroke="none" font-family="Arial" font-size="24px" font-style="normal" font-weight="normal" text-decoration="none" x="0" y="60">UNREGISTERED</text><text fill="#eeeeee" stroke="none" font-family="Arial" font-size="24px" font-style="normal" font-weight="normal" text-decoration="none" x="0" y="90">UNREGISTERED</text><text fill="#eeeeee" stroke="none" font-family="Arial" font-size="24px" font-style="normal" font-weight="normal" text-decoration="none" x="0" y="120">UNREGISTERED</text><text fill="#eeeeee" stroke="none" font-family="Arial" font-size="24px" font-style="normal" font-weight="normal" text-decoration="none" x="0" y="150">UNREGISTERED</text><text fill="#eeeeee" stroke="none" font-family="Arial" font-size="24px" font-style="normal" font-weight="normal" text-decoration="none" x="0" y="180">UNREGISTERED</text><text fill="#eeeeee" stroke="none" font-family="Arial" font-size="24px" font-style="normal" font-weight="normal" text-decoration="none" x="0" y="210">UNREGISTERED</text><text fill="#eeeeee" stroke="none" font-family="Arial" font-size="24px" font-style="normal" font-weight="normal" text-decoration="none" x="0" y="240">UNREGISTERED</text><text fill="#eeeeee" stroke="none" font-family="Arial" font-size="24px" font-style="normal" font-weight="normal" text-decoration="none" x="0" y="270">UNREGISTERED</text><text fill="#eeeeee" stroke="none" font-family="Arial" font-size="24px" font-style="normal" font-weight="normal" text-decoration="none" x="0" y="300">UNREGISTERED</text><text fill="#eeeeee" stroke="none" font-family="Arial" font-size="24px" font-style="normal" font-weight="normal" text-decoration="none" x="200" y="0">UNREGISTERED</text><text fill="#eeeeee" stroke="none" font-family="Arial" font-size="24px" font-style="normal" font-weight="normal" text-decoration="none" x="200" y="30">UNREGISTERED</text><text fill="#eeeeee" stroke="none" font-family="Arial" font-size="24px" font-style="normal" font-weight="normal" text-decoration="none" x="200" y="60">UNREGISTERED</text><text fill="#eeeeee" stroke="none" font-family="Arial" font-size="24px" font-style="normal" font-weight="normal" text-decoration="none" x="200" y="90">UNREGISTERED</text><text fill="#eeeeee" stroke="none" font-family="Arial" font-size="24px" font-style="normal" font-weight="normal" text-decoration="none" x="200" y="120">UNREGISTERED</text><text fill="#eeeeee" stroke="none" font-family="Arial" font-size="24px" font-style="normal" font-weight="normal" text-decoration="none" x="200" y="150">UNREGISTERED</text><text fill="#eeeeee" stroke="none" font-family="Arial" font-size="24px" font-style="normal" font-weight="normal" text-decoration="none" x="200" y="180">UNREGISTERED</text><text fill="#eeeeee" stroke="none" font-family="Arial" font-size="24px" font-style="normal" font-weight="normal" text-decoration="none" x="200" y="210">UNREGISTERED</text><text fill="#eeeeee" stroke="none" font-family="Arial" font-size="24px" font-style="normal" font-weight="normal" text-decoration="none" x="200" y="240">UNREGISTERED</text><text fill="#eeeeee" stroke="none" font-family="Arial" font-size="24px" font-style="normal" font-weight="normal" text-decoration="none" x="200" y="270">UNREGISTERED</text><text fill="#eeeeee" stroke="none" font-family="Arial" font-size="24px" font-style="normal" font-weight="normal" text-decoration="none" x="200" y="300">UNREGISTERED</text><text fill="#eeeeee" stroke="none" font-family="Arial" font-size="24px" font-style="normal" font-weight="normal" text-decoration="none" x="400" y="0">UNREGISTERED</text><text fill="#eeeeee" stroke="none" font-family="Arial" font-size="24px" font-style="normal" font-weight="normal" text-decoration="none" x="400" y="30">UNREGISTERED</text><text fill="#eeeeee" stroke="none" font-family="Arial" font-size="24px" font-style="normal" font-weight="normal" text-decoration="none" x="400" y="60">UNREGISTERED</text><text fill="#eeeeee" stroke="none" font-family="Arial" font-size="24px" font-style="normal" font-weight="normal" text-decoration="none" x="400" y="90">UNREGISTERED</text><text fill="#eeeeee" stroke="none" font-family="Arial" font-size="24px" font-style="normal" font-weight="normal" text-decoration="none" x="400" y="120">UNREGISTERED</text><text fill="#eeeeee" stroke="none" font-family="Arial" font-size="24px" font-style="normal" font-weight="normal" text-decoration="none" x="400" y="150">UNREGISTERED</text><text fill="#eeeeee" stroke="none" font-family="Arial" font-size="24px" font-style="normal" font-weight="normal" text-decoration="none" x="400" y="180">UNREGISTERED</text><text fill="#eeeeee" stroke="none" font-family="Arial" font-size="24px" font-style="normal" font-weight="normal" text-decoration="none" x="400" y="210">UNREGISTERED</text><text fill="#eeeeee" stroke="none" font-family="Arial" font-size="24px" font-style="normal" font-weight="normal" text-decoration="none" x="400" y="240">UNREGISTERED</text><text fill="#eeeeee" stroke="none" font-family="Arial" font-size="24px" font-style="normal" font-weight="normal" text-decoration="none" x="400" y="270">UNREGISTERED</text><text fill="#eeeeee" stroke="none" font-family="Arial" font-size="24px" font-style="normal" font-weight="normal" text-decoration="none" x="400" y="300">UNREGISTERED</text><text fill="#eeeeee" stroke="none" font-family="Arial" font-size="24px" font-style="normal" font-weight="normal" text-decoration="none" x="600" y="0">UNREGISTERED</text><text fill="#eeeeee" stroke="none" font-family="Arial" font-size="24px" font-style="normal" font-weight="normal" text-decoration="none" x="600" y="30">UNREGISTERED</text><text fill="#eeeeee" stroke="none" font-family="Arial" font-size="24px" font-style="normal" font-weight="normal" text-decoration="none" x="600" y="60">UNREGISTERED</text><text fill="#eeeeee" stroke="none" font-family="Arial" font-size="24px" font-style="normal" font-weight="normal" text-decoration="none" x="600" y="90">UNREGISTERED</text><text fill="#eeeeee" stroke="none" font-family="Arial" font-size="24px" font-style="normal" font-weight="normal" text-decoration="none" x="600" y="120">UNREGISTERED</text><text fill="#eeeeee" stroke="none" font-family="Arial" font-size="24px" font-style="normal" font-weight="normal" text-decoration="none" x="600" y="150">UNREGISTERED</text><text fill="#eeeeee" stroke="none" font-family="Arial" font-size="24px" font-style="normal" font-weight="normal" text-decoration="none" x="600" y="180">UNREGISTERED</text><text fill="#eeeeee" stroke="none" font-family="Arial" font-size="24px" font-style="normal" font-weight="normal" text-decoration="none" x="600" y="210">UNREGISTERED</text><text fill="#eeeeee" stroke="none" font-family="Arial" font-size="24px" font-style="normal" font-weight="normal" text-decoration="none" x="600" y="240">UNREGISTERED</text><text fill="#eeeeee" stroke="none" font-family="Arial" font-size="24px" font-style="normal" font-weight="normal" text-decoration="none" x="600" y="270">UNREGISTERED</text><text fill="#eeeeee" stroke="none" font-family="Arial" font-size="24px" font-style="normal" font-weight="normal" text-decoration="none" x="600" y="300">UNREGISTERED</text><g transform="translate(-22,-46) scale(1,1)"><rect fill="#C0C0C0" stroke="none" x="79" y="63" width="274.4716796875" height="102" opacity="0.2"/></g><g transform="translate(-22,-46) scale(1,1)"><rect fill="#ffffff" stroke="none" x="72" y="56" width="274.4716796875" height="102"/></g><g transform="translate(-22,-46) scale(1,1)"><path fill="none" stroke="#000000" d="M 72 56 L 346.4716796875 56 L 346.4716796875 158 L 72 158 L 72 56 Z Z" stroke-miterlimit="10"/></g><g transform="translate(-22,-46) scale(1,1)"><path fill="none" stroke="#000000" d="M 72 81 L 346.4716796875 81" stroke-miterlimit="10"/></g><g transform="translate(-22,-46) scale(1,1)"><path fill="none" stroke="#000000" d="M 72 149 L 346.4716796875 149" stroke-miterlimit="10"/></g><g transform="translate(-22,-46) scale(1,1)"><g><path fill="none" stroke="none"/><text fill="#000000" stroke="none" font-family="Arial" font-size="13px" font-style="normal" font-weight="bold" text-decoration="none" x="186.241455078125" y="75.5">Валюта</text></g></g><g transform="translate(-22,-46) scale(1,1)"><g><path fill="none" stroke="none"/><text fill="#000000" stroke="none" font-family="Arial" font-size="13px" font-style="normal" font-weight="normal" text-decoration="none" x="77" y="98.5">+Наименование валюты[1]</text></g></g><g transform="translate(-22,-46) scale(1,1)"><g><path fill="none" stroke="none"/><text fill="#000000" stroke="none" font-family="Arial" font-size="13px" font-style="normal" font-weight="normal" text-decoration="none" x="77" y="113.5">+Код вылюты буквенный[1]</text></g></g><g transform="translate(-22,-46) scale(1,1)"><g><path fill="none" stroke="none"/><text fill="#000000" stroke="none" font-family="Arial" font-size="13px" font-style="normal" font-weight="normal" text-decoration="none" x="77" y="128.5">+Код валюы цифровой[1]</text></g></g><g transform="translate(-22,-46) scale(1,1)"><g><path fill="none" stroke="none"/><text fill="#000000" stroke="none" font-family="Arial" font-size="13px" font-style="normal" font-weight="normal" text-decoration="none" x="77" y="143.5">+Наименование государств и территорий[1]</text></g></g><g transform="translate(-22,-46) scale(1,1)"><path fill="#ffffff" stroke="none" d="M 384 56 L 496.03173828125 56 L 506.03173828125 66 L 506.03173828125 118 L 384 118 L 384 56"/></g><g transform="translate(-22,-46) scale(1,1)"><path fill="none" stroke="#000000" d="M 384 56 L 496.03173828125 56 L 506.03173828125 66 L 506.03173828125 118 L 384 118 L 384 56 L 384 56" stroke-miterlimit="10"/></g><g transform="translate(-22,-46) scale(1,1)"><path fill="none" stroke="#000000" d="M 496.03173828125 56 L 496.03173828125 66 L 506.03173828125 66 L 496.03173828125 56" stroke-miterlimit="10"/></g><g transform="translate(-22,-46) scale(1,1)"><g><path fill="none" stroke="none"/><text fill="#000000" stroke="none" font-family="Arial" font-size="13px" font-style="normal" font-weight="normal" text-decoration="none" x="389" y="74">Общероссийский</text><text fill="#000000" stroke="none" font-family="Arial" font-size="13px" font-style="normal" font-weight="normal" text-decoration="none" x="389" y="87">классификатор</text><text fill="#000000" stroke="none" font-family="Arial" font-size="13px" font-style="normal" font-weight="normal" text-decoration="none" x="389" y="100">валют (ISO-4217)</text></g></g><g transform="translate(-22,-46) scale(1,1)"><path fill="none" stroke="#000000" d="M 347 95 L 383 92" stroke-miterlimit="10" stroke-dasharray="3"/></g><g transform="translate(-22,-46) scale(1,1)"><rect fill="#C0C0C0" stroke="none" x="247" y="263" width="182.0625" height="57" opacity="0.2"/></g><g transform="translate(-22,-46) scale(1,1)"><rect fill="#ffffff" stroke="none" x="240" y="256" width="182.0625" height="57"/></g><g transform="translate(-22,-46) scale(1,1)"><path fill="none" stroke="#000000" d="M 240 256 L 422.0625 256 L 422.0625 313 L 240 313 L 240 256 Z Z" stroke-miterlimit="10"/></g><g transform="translate(-22,-46) scale(1,1)"><path fill="none" stroke="#000000" d="M 240 281 L 422.0625 281" stroke-miterlimit="10"/></g><g transform="translate(-22,-46) scale(1,1)"><path fill="none" stroke="#000000" d="M 240 304 L 422.0625 304" stroke-miterlimit="10"/></g><g transform="translate(-22,-46) scale(1,1)"><g><path fill="none" stroke="none"/><text fill="#000000" stroke="none" font-family="Arial" font-size="13px" font-style="normal" font-weight="bold" text-decoration="none" x="251.55224609375" y="275.5">Источник валютного курса</text></g></g><g transform="translate(-22,-46) scale(1,1)"><g><path fill="none" stroke="none"/><text fill="#000000" stroke="none" font-family="Arial" font-size="13px" font-style="normal" font-weight="normal" text-decoration="none" x="245" y="298.5">+Наименование</text></g></g><g transform="translate(-22,-46) scale(1,1)"><path fill="#ffffff" stroke="none" d="M 464 256 L 605 256 L 615 266 L 615 309 L 464 309 L 464 256"/></g><g transform="translate(-22,-46) scale(1,1)"><path fill="none" stroke="#000000" d="M 464 256 L 605 256 L 615 266 L 615 309 L 464 309 L 464 256 L 464 256" stroke-miterlimit="10"/></g><g transform="translate(-22,-46) scale(1,1)"><path fill="none" stroke="#000000" d="M 605 256 L 605 266 L 615 266 L 605 256" stroke-miterlimit="10"/></g><g transform="translate(-22,-46) scale(1,1)"><g><path fill="none" stroke="none"/><text fill="#000000" stroke="none" font-family="Arial" font-size="13px" font-style="normal" font-weight="normal" text-decoration="none" x="469" y="274">ЦБ, Reuters,</text></g></g><g transform="translate(-22,-46) scale(1,1)"><g><path fill="none" stroke="none"/><text fill="#000000" stroke="none" font-family="Arial" font-size="13px" font-style="normal" font-weight="normal" text-decoration="none" x="469" y="289">...,</text></g></g><g transform="translate(-22,-46) scale(1,1)"><g><path fill="none" stroke="none"/><text fill="#000000" stroke="none" font-family="Arial" font-size="13px" font-style="normal" font-weight="normal" text-decoration="none" x="469" y="304">Банка</text></g></g><g transform="translate(-22,-46) scale(1,1)"><path fill="none" stroke="#000000" d="M 423 284 L 463 283" stroke-miterlimit="10" stroke-dasharray="3"/></g><g transform="translate(-22,-46) scale(1,1)"><rect fill="#C0C0C0" stroke="none" x="71" y="287" width="118.1796875" height="72" opacity="0.2"/></g><g transform="translate(-22,-46) scale(1,1)"><rect fill="#ffffff" stroke="none" x="64" y="280" width="118.1796875" height="72"/></g><g transform="translate(-22,-46) scale(1,1)"><path fill="none" stroke="#000000" d="M 64 280 L 182.1796875 280 L 182.1796875 352 L 64 352 L 64 280 Z Z" stroke-miterlimit="10"/></g><g transform="translate(-22,-46) scale(1,1)"><path fill="none" stroke="#000000" d="M 64 305 L 182.1796875 305" stroke-miterlimit="10"/></g><g transform="translate(-22,-46) scale(1,1)"><path fill="none" stroke="#000000" d="M 64 343 L 182.1796875 343" stroke-miterlimit="10"/></g><g transform="translate(-22,-46) scale(1,1)"><g><path fill="none" stroke="none"/><text fill="#000000" stroke="none" font-family="Arial" font-size="13px" font-style="normal" font-weight="bold" text-decoration="none" x="84.28662109375" y="299.5">Курс валюты</text></g></g><g transform="translate(-22,-46) scale(1,1)"><g><path fill="none" stroke="none"/><text fill="#000000" stroke="none" font-family="Arial" font-size="13px" font-style="normal" font-weight="normal" text-decoration="none" x="69" y="322.5">+Курс покупки</text></g></g><g transform="translate(-22,-46) scale(1,1)"><g><path fill="none" stroke="none"/><text fill="#000000" stroke="none" font-family="Arial" font-size="13px" font-style="normal" font-weight="normal" text-decoration="none" x="69" y="337.5">+Курс продажи</text></g></g><g transform="translate(-22,-46) scale(1,1)"><path fill="none" stroke="#000000" d="M 182 301 L 240 301" stroke-miterlimit="10"/></g><g transform="translate(-22,-46) scale(1,1)"><g><path fill="none" stroke="none"/><text fill="#000000" stroke="none" font-family="Arial" font-size="13px" font-style="normal" font-weight="normal" text-decoration="none" x="199.5" y="319.5">1</text></g></g><g transform="translate(-22,-46) scale(1,1)"><g><path fill="none" stroke="none"/><text fill="#000000" stroke="none" font-family="Arial" font-size="13px" font-style="normal" font-weight="normal" text-decoration="none" x="215.5" y="319.5">*</text></g></g><g transform="translate(-22,-46) scale(1,1)"><path fill="none" stroke="#000000" d="M 88 280 L 88 158" stroke-miterlimit="10"/></g><g transform="translate(-22,-46) scale(1,1)"><g><path fill="none" stroke="none"/><text fill="#000000" stroke="none" font-family="Arial" font-size="13px" font-style="normal" font-weight="normal" text-decoration="none" x="31.5" y="223.5">+Валюта покупки</text></g></g><g transform="translate(-22,-46) scale(1,1)"><path fill="none" stroke="#000000" d="M 160 280 L 160 158" stroke-miterlimit="10"/></g><g transform="translate(-22,-46) scale(1,1)"><g><path fill="none" stroke="none"/><text fill="#000000" stroke="none" font-family="Arial" font-size="13px" font-style="normal" font-weight="normal" text-decoration="none" x="103.5" y="195.5">+Валюта продажи</text></g></g></g></svg>