<svg version="1.1" xmlns="http://www.w3.org/2000/svg" xmlns:xlink="http://www.w3.org/1999/xlink" width="197.4921875" height="107"><defs/><g><text fill="#eeeeee" stroke="none" font-family="Arial" font-size="24px" font-style="normal" font-weight="normal" text-decoration="none" x="0" y="0">UNREGISTERED</text><text fill="#eeeeee" stroke="none" font-family="Arial" font-size="24px" font-style="normal" font-weight="normal" text-decoration="none" x="0" y="30">UNREGISTERED</text><text fill="#eeeeee" stroke="none" font-family="Arial" font-size="24px" font-style="normal" font-weight="normal" text-decoration="none" x="0" y="60">UNREGISTERED</text><text fill="#eeeeee" stroke="none" font-family="Arial" font-size="24px" font-style="normal" font-weight="normal" text-decoration="none" x="0" y="90">UNREGISTERED</text><g transform="translate(-126,-70) scale(1,1)"><rect fill="#C0C0C0" stroke="none" x="143" y="87" width="177.4921875" height="87" opacity="0.2"/></g><g transform="translate(-126,-70) scale(1,1)"><rect fill="#ffffff" stroke="none" x="136" y="80" width="177.4921875" height="87"/></g><g transform="translate(-126,-70) scale(1,1)"><path fill="none" stroke="#000000" d="M 136 80 L 313.4921875 80 L 313.4921875 167 L 136 167 L 136 80 Z Z" stroke-miterlimit="10"/></g><g transform="translate(-126,-70) scale(1,1)"><path fill="none" stroke="#000000" d="M 136 105 L 313.4921875 105" stroke-miterlimit="10"/></g><g transform="translate(-126,-70) scale(1,1)"><path fill="none" stroke="#000000" d="M 136 158 L 313.4921875 158" stroke-miterlimit="10"/></g><g transform="translate(-126,-70) scale(1,1)"><g><path fill="none" stroke="none"/><text fill="#000000" stroke="none" font-family="Arial" font-size="13px" font-style="normal" font-weight="bold" text-decoration="none" x="195.981689453125" y="99.5">АС Банка</text></g></g><g transform="translate(-126,-70) scale(1,1)"><g><path fill="none" stroke="none"/><text fill="#000000" stroke="none" font-family="Arial" font-size="13px" font-style="normal" font-weight="normal" text-decoration="none" x="141" y="122.5">+Код АС</text></g></g><g transform="translate(-126,-70) scale(1,1)"><g><path fill="none" stroke="none"/><text fill="#000000" stroke="none" font-family="Arial" font-size="13px" font-style="normal" font-weight="normal" text-decoration="none" x="141" y="137.5">+Краткое наименование АС</text></g></g><g transform="translate(-126,-70) scale(1,1)"><g><path fill="none" stroke="none"/><text fill="#000000" stroke="none" font-family="Arial" font-size="13px" font-style="normal" font-weight="normal" text-decoration="none" x="141" y="152.5">+Полное наименование АС</text></g></g></g></svg>