<svg version="1.1" xmlns="http://www.w3.org/2000/svg" xmlns:xlink="http://www.w3.org/1999/xlink" width="466.0625" height="394"><defs/><g><text fill="#eeeeee" stroke="none" font-family="Arial" font-size="24px" font-style="normal" font-weight="normal" text-decoration="none" x="0" y="0">UNREGISTERED</text><text fill="#eeeeee" stroke="none" font-family="Arial" font-size="24px" font-style="normal" font-weight="normal" text-decoration="none" x="0" y="30">UNREGISTERED</text><text fill="#eeeeee" stroke="none" font-family="Arial" font-size="24px" font-style="normal" font-weight="normal" text-decoration="none" x="0" y="60">UNREGISTERED</text><text fill="#eeeeee" stroke="none" font-family="Arial" font-size="24px" font-style="normal" font-weight="normal" text-decoration="none" x="0" y="90">UNREGISTERED</text><text fill="#eeeeee" stroke="none" font-family="Arial" font-size="24px" font-style="normal" font-weight="normal" text-decoration="none" x="0" y="120">UNREGISTERED</text><text fill="#eeeeee" stroke="none" font-family="Arial" font-size="24px" font-style="normal" font-weight="normal" text-decoration="none" x="0" y="150">UNREGISTERED</text><text fill="#eeeeee" stroke="none" font-family="Arial" font-size="24px" font-style="normal" font-weight="normal" text-decoration="none" x="0" y="180">UNREGISTERED</text><text fill="#eeeeee" stroke="none" font-family="Arial" font-size="24px" font-style="normal" font-weight="normal" text-decoration="none" x="0" y="210">UNREGISTERED</text><text fill="#eeeeee" stroke="none" font-family="Arial" font-size="24px" font-style="normal" font-weight="normal" text-decoration="none" x="0" y="240">UNREGISTERED</text><text fill="#eeeeee" stroke="none" font-family="Arial" font-size="24px" font-style="normal" font-weight="normal" text-decoration="none" x="0" y="270">UNREGISTERED</text><text fill="#eeeeee" stroke="none" font-family="Arial" font-size="24px" font-style="normal" font-weight="normal" text-decoration="none" x="0" y="300">UNREGISTERED</text><text fill="#eeeeee" stroke="none" font-family="Arial" font-size="24px" font-style="normal" font-weight="normal" text-decoration="none" x="0" y="330">UNREGISTERED</text><text fill="#eeeeee" stroke="none" font-family="Arial" font-size="24px" font-style="normal" font-weight="normal" text-decoration="none" x="0" y="360">UNREGISTERED</text><text fill="#eeeeee" stroke="none" font-family="Arial" font-size="24px" font-style="normal" font-weight="normal" text-decoration="none" x="0" y="390">UNREGISTERED</text><text fill="#eeeeee" stroke="none" font-family="Arial" font-size="24px" font-style="normal" font-weight="normal" text-decoration="none" x="200" y="0">UNREGISTERED</text><text fill="#eeeeee" stroke="none" font-family="Arial" font-size="24px" font-style="normal" font-weight="normal" text-decoration="none" x="200" y="30">UNREGISTERED</text><text fill="#eeeeee" stroke="none" font-family="Arial" font-size="24px" font-style="normal" font-weight="normal" text-decoration="none" x="200" y="60">UNREGISTERED</text><text fill="#eeeeee" stroke="none" font-family="Arial" font-size="24px" font-style="normal" font-weight="normal" text-decoration="none" x="200" y="90">UNREGISTERED</text><text fill="#eeeeee" stroke="none" font-family="Arial" font-size="24px" font-style="normal" font-weight="normal" text-decoration="none" x="200" y="120">UNREGISTERED</text><text fill="#eeeeee" stroke="none" font-family="Arial" font-size="24px" font-style="normal" font-weight="normal" text-decoration="none" x="200" y="150">UNREGISTERED</text><text fill="#eeeeee" stroke="none" font-family="Arial" font-size="24px" font-style="normal" font-weight="normal" text-decoration="none" x="200" y="180">UNREGISTERED</text><text fill="#eeeeee" stroke="none" font-family="Arial" font-size="24px" font-style="normal" font-weight="normal" text-decoration="none" x="200" y="210">UNREGISTERED</text><text fill="#eeeeee" stroke="none" font-family="Arial" font-size="24px" font-style="normal" font-weight="normal" text-decoration="none" x="200" y="240">UNREGISTERED</text><text fill="#eeeeee" stroke="none" font-family="Arial" font-size="24px" font-style="normal" font-weight="normal" text-decoration="none" x="200" y="270">UNREGISTERED</text><text fill="#eeeeee" stroke="none" font-family="Arial" font-size="24px" font-style="normal" font-weight="normal" text-decoration="none" x="200" y="300">UNREGISTERED</text><text fill="#eeeeee" stroke="none" font-family="Arial" font-size="24px" font-style="normal" font-weight="normal" text-decoration="none" x="200" y="330">UNREGISTERED</text><text fill="#eeeeee" stroke="none" font-family="Arial" font-size="24px" font-style="normal" font-weight="normal" text-decoration="none" x="200" y="360">UNREGISTERED</text><text fill="#eeeeee" stroke="none" font-family="Arial" font-size="24px" font-style="normal" font-weight="normal" text-decoration="none" x="200" y="390">UNREGISTERED</text><text fill="#eeeeee" stroke="none" font-family="Arial" font-size="24px" font-style="normal" font-weight="normal" text-decoration="none" x="400" y="0">UNREGISTERED</text><text fill="#eeeeee" stroke="none" font-family="Arial" font-size="24px" font-style="normal" font-weight="normal" text-decoration="none" x="400" y="30">UNREGISTERED</text><text fill="#eeeeee" stroke="none" font-family="Arial" font-size="24px" font-style="normal" font-weight="normal" text-decoration="none" x="400" y="60">UNREGISTERED</text><text fill="#eeeeee" stroke="none" font-family="Arial" font-size="24px" font-style="normal" font-weight="normal" text-decoration="none" x="400" y="90">UNREGISTERED</text><text fill="#eeeeee" stroke="none" font-family="Arial" font-size="24px" font-style="normal" font-weight="normal" text-decoration="none" x="400" y="120">UNREGISTERED</text><text fill="#eeeeee" stroke="none" font-family="Arial" font-size="24px" font-style="normal" font-weight="normal" text-decoration="none" x="400" y="150">UNREGISTERED</text><text fill="#eeeeee" stroke="none" font-family="Arial" font-size="24px" font-style="normal" font-weight="normal" text-decoration="none" x="400" y="180">UNREGISTERED</text><text fill="#eeeeee" stroke="none" font-family="Arial" font-size="24px" font-style="normal" font-weight="normal" text-decoration="none" x="400" y="210">UNREGISTERED</text><text fill="#eeeeee" stroke="none" font-family="Arial" font-size="24px" font-style="normal" font-weight="normal" text-decoration="none" x="400" y="240">UNREGISTERED</text><text fill="#eeeeee" stroke="none" font-family="Arial" font-size="24px" font-style="normal" font-weight="normal" text-decoration="none" x="400" y="270">UNREGISTERED</text><text fill="#eeeeee" stroke="none" font-family="Arial" font-size="24px" font-style="normal" font-weight="normal" text-decoration="none" x="400" y="300">UNREGISTERED</text><text fill="#eeeeee" stroke="none" font-family="Arial" font-size="24px" font-style="normal" font-weight="normal" text-decoration="none" x="400" y="330">UNREGISTERED</text><text fill="#eeeeee" stroke="none" font-family="Arial" font-size="24px" font-style="normal" font-weight="normal" text-decoration="none" x="400" y="360">UNREGISTERED</text><text fill="#eeeeee" stroke="none" font-family="Arial" font-size="24px" font-style="normal" font-weight="normal" text-decoration="none" x="400" y="390">UNREGISTERED</text><g transform="translate(-238,-46) scale(1,1)"><rect fill="#C0C0C0" stroke="none" x="255" y="63" width="274.4716796875" height="102" opacity="0.2"/></g><g transform="translate(-238,-46) scale(1,1)"><rect fill="#ffffff" stroke="none" x="248" y="56" width="274.4716796875" height="102"/></g><g transform="translate(-238,-46) scale(1,1)"><path fill="none" stroke="#000000" d="M 248 56 L 522.4716796875 56 L 522.4716796875 158 L 248 158 L 248 56 Z Z" stroke-miterlimit="10"/></g><g transform="translate(-238,-46) scale(1,1)"><path fill="none" stroke="#000000" d="M 248 81 L 522.4716796875 81" stroke-miterlimit="10"/></g><g transform="translate(-238,-46) scale(1,1)"><path fill="none" stroke="#000000" d="M 248 149 L 522.4716796875 149" stroke-miterlimit="10"/></g><g transform="translate(-238,-46) scale(1,1)"><g><path fill="none" stroke="none"/><text fill="#000000" stroke="none" font-family="Arial" font-size="13px" font-style="normal" font-weight="bold" text-decoration="none" x="362.241455078125" y="75.5">Валюта</text></g></g><g transform="translate(-238,-46) scale(1,1)"><g><path fill="none" stroke="none"/><text fill="#000000" stroke="none" font-family="Arial" font-size="13px" font-style="normal" font-weight="normal" text-decoration="none" x="253" y="98.5">+Наименование валюты[1]</text></g></g><g transform="translate(-238,-46) scale(1,1)"><g><path fill="none" stroke="none"/><text fill="#000000" stroke="none" font-family="Arial" font-size="13px" font-style="normal" font-weight="normal" text-decoration="none" x="253" y="113.5">+Код вылюты буквенный[1]</text></g></g><g transform="translate(-238,-46) scale(1,1)"><g><path fill="none" stroke="none"/><text fill="#000000" stroke="none" font-family="Arial" font-size="13px" font-style="normal" font-weight="normal" text-decoration="none" x="253" y="128.5">+Код валюы цифровой[1]</text></g></g><g transform="translate(-238,-46) scale(1,1)"><g><path fill="none" stroke="none"/><text fill="#000000" stroke="none" font-family="Arial" font-size="13px" font-style="normal" font-weight="normal" text-decoration="none" x="253" y="143.5">+Наименование государств и территорий[1]</text></g></g><g transform="translate(-238,-46) scale(1,1)"><rect fill="#C0C0C0" stroke="none" x="295" y="279" width="147.84765625" height="57" opacity="0.2"/></g><g transform="translate(-238,-46) scale(1,1)"><rect fill="#ffffff" stroke="none" x="288" y="272" width="147.84765625" height="57"/></g><g transform="translate(-238,-46) scale(1,1)"><path fill="none" stroke="#000000" d="M 288 272 L 435.84765625 272 L 435.84765625 329 L 288 329 L 288 272 Z Z" stroke-miterlimit="10"/></g><g transform="translate(-238,-46) scale(1,1)"><path fill="none" stroke="#000000" d="M 288 297 L 435.84765625 297" stroke-miterlimit="10"/></g><g transform="translate(-238,-46) scale(1,1)"><path fill="none" stroke="#000000" d="M 288 320 L 435.84765625 320" stroke-miterlimit="10"/></g><g transform="translate(-238,-46) scale(1,1)"><g><path fill="none" stroke="none"/><text fill="#000000" stroke="none" font-family="Arial" font-size="13px" font-style="normal" font-weight="bold" text-decoration="none" x="323.12060546875" y="291.5">Курс валюты</text></g></g><g transform="translate(-238,-46) scale(1,1)"><g><path fill="none" stroke="none"/><text fill="#000000" stroke="none" font-family="Arial" font-size="13px" font-style="normal" font-weight="normal" text-decoration="none" x="293" y="314.5">+Курс обмена</text></g></g><g transform="translate(-238,-46) scale(1,1)"><path fill="none" stroke="#000000" d="M 328 272 L 328 158" stroke-miterlimit="10"/></g><g transform="translate(-238,-46) scale(1,1)"><g><path fill="none" stroke="none"/><text fill="#000000" stroke="none" font-family="Arial" font-size="13px" font-style="normal" font-weight="normal" text-decoration="none" x="254.5" y="216.5">+Валюта покупки</text></g></g><g transform="translate(-238,-46) scale(1,1)"><g><path fill="none" stroke="none"/><text fill="#000000" stroke="none" font-family="Arial" font-size="13px" font-style="normal" font-weight="normal" text-decoration="none" x="336.5" y="256.5">1</text></g></g><g transform="translate(-238,-46) scale(1,1)"><g><path fill="none" stroke="none"/><text fill="#000000" stroke="none" font-family="Arial" font-size="13px" font-style="normal" font-weight="normal" text-decoration="none" x="337.5" y="185.5">*</text></g></g><g transform="translate(-238,-46) scale(1,1)"><path fill="none" stroke="#000000" d="M 416 272 L 416 158" stroke-miterlimit="10"/></g><g transform="translate(-238,-46) scale(1,1)"><g><path fill="none" stroke="none"/><text fill="#000000" stroke="none" font-family="Arial" font-size="13px" font-style="normal" font-weight="normal" text-decoration="none" x="343.5" y="236.5">+Валюта продажи</text></g></g><g transform="translate(-238,-46) scale(1,1)"><g><path fill="none" stroke="none"/><text fill="#000000" stroke="none" font-family="Arial" font-size="13px" font-style="normal" font-weight="normal" text-decoration="none" x="424.5" y="256.5">1</text></g></g><g transform="translate(-238,-46) scale(1,1)"><g><path fill="none" stroke="none"/><text fill="#000000" stroke="none" font-family="Arial" font-size="13px" font-style="normal" font-weight="normal" text-decoration="none" x="425.5" y="185.5">*</text></g></g><g transform="translate(-238,-46) scale(1,1)"><rect fill="#C0C0C0" stroke="none" x="519" y="287" width="182.0625" height="57" opacity="0.2"/></g><g transform="translate(-238,-46) scale(1,1)"><rect fill="#ffffff" stroke="none" x="512" y="280" width="182.0625" height="57"/></g><g transform="translate(-238,-46) scale(1,1)"><path fill="none" stroke="#000000" d="M 512 280 L 694.0625 280 L 694.0625 337 L 512 337 L 512 280 Z Z" stroke-miterlimit="10"/></g><g transform="translate(-238,-46) scale(1,1)"><path fill="none" stroke="#000000" d="M 512 305 L 694.0625 305" stroke-miterlimit="10"/></g><g transform="translate(-238,-46) scale(1,1)"><path fill="none" stroke="#000000" d="M 512 328 L 694.0625 328" stroke-miterlimit="10"/></g><g transform="translate(-238,-46) scale(1,1)"><g><path fill="none" stroke="none"/><text fill="#000000" stroke="none" font-family="Arial" font-size="13px" font-style="normal" font-weight="bold" text-decoration="none" x="523.55224609375" y="299.5">Источник валютного курса</text></g></g><g transform="translate(-238,-46) scale(1,1)"><g><path fill="none" stroke="none"/><text fill="#000000" stroke="none" font-family="Arial" font-size="13px" font-style="normal" font-weight="normal" text-decoration="none" x="517" y="322.5">+Наименование</text></g></g><g transform="translate(-238,-46) scale(1,1)"><path fill="none" stroke="#000000" d="M 437 303 L 511 305" stroke-miterlimit="10"/></g><g transform="translate(-238,-46) scale(1,1)"><g><path fill="none" stroke="none"/><text fill="#000000" stroke="none" font-family="Arial" font-size="13px" font-style="normal" font-weight="normal" text-decoration="none" x="454.5" y="322.5">1</text></g></g><g transform="translate(-238,-46) scale(1,1)"><g><path fill="none" stroke="none"/><text fill="#000000" stroke="none" font-family="Arial" font-size="13px" font-style="normal" font-weight="normal" text-decoration="none" x="486.5" y="322.5">*</text></g></g><g transform="translate(-238,-46) scale(1,1)"><path fill="#ffffff" stroke="none" d="M 560 72 L 672.03173828125 72 L 682.03173828125 82 L 682.03173828125 134 L 560 134 L 560 72"/></g><g transform="translate(-238,-46) scale(1,1)"><path fill="none" stroke="#000000" d="M 560 72 L 672.03173828125 72 L 682.03173828125 82 L 682.03173828125 134 L 560 134 L 560 72 L 560 72" stroke-miterlimit="10"/></g><g transform="translate(-238,-46) scale(1,1)"><path fill="none" stroke="#000000" d="M 672.03173828125 72 L 672.03173828125 82 L 682.03173828125 82 L 672.03173828125 72" stroke-miterlimit="10"/></g><g transform="translate(-238,-46) scale(1,1)"><g><path fill="none" stroke="none"/><text fill="#000000" stroke="none" font-family="Arial" font-size="13px" font-style="normal" font-weight="normal" text-decoration="none" x="565" y="90">Общероссийский</text><text fill="#000000" stroke="none" font-family="Arial" font-size="13px" font-style="normal" font-weight="normal" text-decoration="none" x="565" y="103">классификатор</text><text fill="#000000" stroke="none" font-family="Arial" font-size="13px" font-style="normal" font-weight="normal" text-decoration="none" x="565" y="116">валют (ISO-4217)</text></g></g><g transform="translate(-238,-46) scale(1,1)"><path fill="none" stroke="#000000" d="M 523 105 L 559 104" stroke-miterlimit="10" stroke-dasharray="3"/></g><g transform="translate(-238,-46) scale(1,1)"><path fill="#ffffff" stroke="none" d="M 512 376 L 653 376 L 663 386 L 663 429 L 512 429 L 512 376"/></g><g transform="translate(-238,-46) scale(1,1)"><path fill="none" stroke="#000000" d="M 512 376 L 653 376 L 663 386 L 663 429 L 512 429 L 512 376 L 512 376" stroke-miterlimit="10"/></g><g transform="translate(-238,-46) scale(1,1)"><path fill="none" stroke="#000000" d="M 653 376 L 653 386 L 663 386 L 653 376" stroke-miterlimit="10"/></g><g transform="translate(-238,-46) scale(1,1)"><g><path fill="none" stroke="none"/><text fill="#000000" stroke="none" font-family="Arial" font-size="13px" font-style="normal" font-weight="normal" text-decoration="none" x="517" y="394">ЦБ, Reuters,</text></g></g><g transform="translate(-238,-46) scale(1,1)"><g><path fill="none" stroke="none"/><text fill="#000000" stroke="none" font-family="Arial" font-size="13px" font-style="normal" font-weight="normal" text-decoration="none" x="517" y="409">...,</text></g></g><g transform="translate(-238,-46) scale(1,1)"><g><path fill="none" stroke="none"/><text fill="#000000" stroke="none" font-family="Arial" font-size="13px" font-style="normal" font-weight="normal" text-decoration="none" x="517" y="424">Банка</text></g></g><g transform="translate(-238,-46) scale(1,1)"><path fill="none" stroke="#000000" d="M 598 338 L 592 375" stroke-miterlimit="10" stroke-dasharray="3"/></g></g></svg>