<svg version="1.1" xmlns="http://www.w3.org/2000/svg" xmlns:xlink="http://www.w3.org/1999/xlink" width="203.32568359375" height="77"><defs/><g><text fill="#eeeeee" stroke="none" font-family="Arial" font-size="24px" font-style="normal" font-weight="normal" text-decoration="none" x="0" y="0">UNREGISTERED</text><text fill="#eeeeee" stroke="none" font-family="Arial" font-size="24px" font-style="normal" font-weight="normal" text-decoration="none" x="0" y="30">UNREGISTERED</text><text fill="#eeeeee" stroke="none" font-family="Arial" font-size="24px" font-style="normal" font-weight="normal" text-decoration="none" x="0" y="60">UNREGISTERED</text><text fill="#eeeeee" stroke="none" font-family="Arial" font-size="24px" font-style="normal" font-weight="normal" text-decoration="none" x="200" y="0">UNREGISTERED</text><text fill="#eeeeee" stroke="none" font-family="Arial" font-size="24px" font-style="normal" font-weight="normal" text-decoration="none" x="200" y="30">UNREGISTERED</text><text fill="#eeeeee" stroke="none" font-family="Arial" font-size="24px" font-style="normal" font-weight="normal" text-decoration="none" x="200" y="60">UNREGISTERED</text><g transform="translate(-70,-78) scale(1,1)"><rect fill="#C0C0C0" stroke="none" x="87" y="95" width="183.32568359375" height="57" opacity="0.2"/></g><g transform="translate(-70,-78) scale(1,1)"><rect fill="#ffffff" stroke="none" x="80" y="88" width="183.32568359375" height="57"/></g><g transform="translate(-70,-78) scale(1,1)"><path fill="none" stroke="#000000" d="M 80 88 L 263.32568359375 88 L 263.32568359375 145 L 80 145 L 80 88 Z Z" stroke-miterlimit="10"/></g><g transform="translate(-70,-78) scale(1,1)"><path fill="none" stroke="#000000" d="M 80 113 L 263.32568359375 113" stroke-miterlimit="10"/></g><g transform="translate(-70,-78) scale(1,1)"><path fill="none" stroke="#000000" d="M 80 136 L 263.32568359375 136" stroke-miterlimit="10"/></g><g transform="translate(-70,-78) scale(1,1)"><g><path fill="none" stroke="none"/><text fill="#000000" stroke="none" font-family="Arial" font-size="13px" font-style="normal" font-weight="bold" text-decoration="none" x="114.280029296875" y="107.5">Пластиковая карта</text></g></g><g transform="translate(-70,-78) scale(1,1)"><g><path fill="none" stroke="none"/><text fill="#000000" stroke="none" font-family="Arial" font-size="13px" font-style="normal" font-weight="normal" text-decoration="none" x="85" y="130.5">+16-ти значный номер карты</text></g></g></g></svg>