<svg version="1.1" xmlns="http://www.w3.org/2000/svg" xmlns:xlink="http://www.w3.org/1999/xlink" width="486.82568359375" height="92"><defs/><g><text fill="#eeeeee" stroke="none" font-family="Arial" font-size="24px" font-style="normal" font-weight="normal" text-decoration="none" x="0" y="0">UNREGISTERED</text><text fill="#eeeeee" stroke="none" font-family="Arial" font-size="24px" font-style="normal" font-weight="normal" text-decoration="none" x="0" y="30">UNREGISTERED</text><text fill="#eeeeee" stroke="none" font-family="Arial" font-size="24px" font-style="normal" font-weight="normal" text-decoration="none" x="0" y="60">UNREGISTERED</text><text fill="#eeeeee" stroke="none" font-family="Arial" font-size="24px" font-style="normal" font-weight="normal" text-decoration="none" x="0" y="90">UNREGISTERED</text><text fill="#eeeeee" stroke="none" font-family="Arial" font-size="24px" font-style="normal" font-weight="normal" text-decoration="none" x="200" y="0">UNREGISTERED</text><text fill="#eeeeee" stroke="none" font-family="Arial" font-size="24px" font-style="normal" font-weight="normal" text-decoration="none" x="200" y="30">UNREGISTERED</text><text fill="#eeeeee" stroke="none" font-family="Arial" font-size="24px" font-style="normal" font-weight="normal" text-decoration="none" x="200" y="60">UNREGISTERED</text><text fill="#eeeeee" stroke="none" font-family="Arial" font-size="24px" font-style="normal" font-weight="normal" text-decoration="none" x="200" y="90">UNREGISTERED</text><text fill="#eeeeee" stroke="none" font-family="Arial" font-size="24px" font-style="normal" font-weight="normal" text-decoration="none" x="400" y="0">UNREGISTERED</text><text fill="#eeeeee" stroke="none" font-family="Arial" font-size="24px" font-style="normal" font-weight="normal" text-decoration="none" x="400" y="30">UNREGISTERED</text><text fill="#eeeeee" stroke="none" font-family="Arial" font-size="24px" font-style="normal" font-weight="normal" text-decoration="none" x="400" y="60">UNREGISTERED</text><text fill="#eeeeee" stroke="none" font-family="Arial" font-size="24px" font-style="normal" font-weight="normal" text-decoration="none" x="400" y="90">UNREGISTERED</text><g transform="translate(-166,-142) scale(1,1)"><rect fill="#C0C0C0" stroke="none" x="183" y="159" width="176.9970703125" height="72" opacity="0.2"/></g><g transform="translate(-166,-142) scale(1,1)"><rect fill="#ffffff" stroke="none" x="176" y="152" width="176.9970703125" height="72"/></g><g transform="translate(-166,-142) scale(1,1)"><path fill="none" stroke="#000000" d="M 176 152 L 352.9970703125 152 L 352.9970703125 224 L 176 224 L 176 152 Z Z" stroke-miterlimit="10"/></g><g transform="translate(-166,-142) scale(1,1)"><path fill="none" stroke="#000000" d="M 176 177 L 352.9970703125 177" stroke-miterlimit="10"/></g><g transform="translate(-166,-142) scale(1,1)"><path fill="none" stroke="#000000" d="M 176 215 L 352.9970703125 215" stroke-miterlimit="10"/></g><g transform="translate(-166,-142) scale(1,1)"><g><path fill="none" stroke="none"/><text fill="#000000" stroke="none" font-family="Arial" font-size="13px" font-style="normal" font-weight="bold" text-decoration="none" x="187.52685546875" y="171.5">Устройство пользователя</text></g></g><g transform="translate(-166,-142) scale(1,1)"><g><path fill="none" stroke="none"/><text fill="#000000" stroke="none" font-family="Arial" font-size="13px" font-style="normal" font-weight="normal" text-decoration="none" x="181" y="194.5">+ID PayControl[1]</text></g></g><g transform="translate(-166,-142) scale(1,1)"><g><path fill="none" stroke="none"/><text fill="#000000" stroke="none" font-family="Arial" font-size="13px" font-style="normal" font-weight="normal" text-decoration="none" x="181" y="209.5">+Kpublic PауControl</text></g></g><g transform="translate(-166,-142) scale(1,1)"><rect fill="#C0C0C0" stroke="none" x="447" y="159" width="202.82568359375" height="57" opacity="0.2"/></g><g transform="translate(-166,-142) scale(1,1)"><rect fill="#ffffff" stroke="none" x="440" y="152" width="202.82568359375" height="57"/></g><g transform="translate(-166,-142) scale(1,1)"><path fill="none" stroke="#000000" d="M 440 152 L 642.82568359375 152 L 642.82568359375 209 L 440 209 L 440 152 Z Z" stroke-miterlimit="10"/></g><g transform="translate(-166,-142) scale(1,1)"><path fill="none" stroke="#000000" d="M 440 177 L 642.82568359375 177" stroke-miterlimit="10"/></g><g transform="translate(-166,-142) scale(1,1)"><path fill="none" stroke="#000000" d="M 440 200 L 642.82568359375 200" stroke-miterlimit="10"/></g><g transform="translate(-166,-142) scale(1,1)"><g><path fill="none" stroke="none"/><text fill="#000000" stroke="none" font-family="Arial" font-size="13px" font-style="normal" font-weight="bold" text-decoration="none" x="452.317138671875" y="171.5">Тип устройства пользователя</text></g></g><g transform="translate(-166,-142) scale(1,1)"><g><path fill="none" stroke="none"/><text fill="#000000" stroke="none" font-family="Arial" font-size="13px" font-style="normal" font-weight="normal" text-decoration="none" x="445" y="194.5">+Тип устройства</text></g></g><g transform="translate(-166,-142) scale(1,1)"><path fill="none" stroke="#000000" d="M 353 180 L 440 180" stroke-miterlimit="10"/></g><g transform="translate(-166,-142) scale(1,1)"><g><path fill="none" stroke="none"/><text fill="#000000" stroke="none" font-family="Arial" font-size="13px" font-style="normal" font-weight="normal" text-decoration="none" x="370.5" y="198.5">1</text></g></g><g transform="translate(-166,-142) scale(1,1)"><g><path fill="none" stroke="none"/><text fill="#000000" stroke="none" font-family="Arial" font-size="13px" font-style="normal" font-weight="normal" text-decoration="none" x="408.5" y="198.5">0..*</text></g></g></g></svg>