<svg version="1.1" xmlns="http://www.w3.org/2000/svg" xmlns:xlink="http://www.w3.org/1999/xlink" width="236" height="170"><defs/><g><text fill="#eeeeee" stroke="none" font-family="Arial" font-size="24px" font-style="normal" font-weight="normal" text-decoration="none" x="0" y="0">UNREGISTERED</text><text fill="#eeeeee" stroke="none" font-family="Arial" font-size="24px" font-style="normal" font-weight="normal" text-decoration="none" x="0" y="30">UNREGISTERED</text><text fill="#eeeeee" stroke="none" font-family="Arial" font-size="24px" font-style="normal" font-weight="normal" text-decoration="none" x="0" y="60">UNREGISTERED</text><text fill="#eeeeee" stroke="none" font-family="Arial" font-size="24px" font-style="normal" font-weight="normal" text-decoration="none" x="0" y="90">UNREGISTERED</text><text fill="#eeeeee" stroke="none" font-family="Arial" font-size="24px" font-style="normal" font-weight="normal" text-decoration="none" x="0" y="120">UNREGISTERED</text><text fill="#eeeeee" stroke="none" font-family="Arial" font-size="24px" font-style="normal" font-weight="normal" text-decoration="none" x="0" y="150">UNREGISTERED</text><text fill="#eeeeee" stroke="none" font-family="Arial" font-size="24px" font-style="normal" font-weight="normal" text-decoration="none" x="200" y="0">UNREGISTERED</text><text fill="#eeeeee" stroke="none" font-family="Arial" font-size="24px" font-style="normal" font-weight="normal" text-decoration="none" x="200" y="30">UNREGISTERED</text><text fill="#eeeeee" stroke="none" font-family="Arial" font-size="24px" font-style="normal" font-weight="normal" text-decoration="none" x="200" y="60">UNREGISTERED</text><text fill="#eeeeee" stroke="none" font-family="Arial" font-size="24px" font-style="normal" font-weight="normal" text-decoration="none" x="200" y="90">UNREGISTERED</text><text fill="#eeeeee" stroke="none" font-family="Arial" font-size="24px" font-style="normal" font-weight="normal" text-decoration="none" x="200" y="120">UNREGISTERED</text><text fill="#eeeeee" stroke="none" font-family="Arial" font-size="24px" font-style="normal" font-weight="normal" text-decoration="none" x="200" y="150">UNREGISTERED</text><g transform="translate(-86,-38) scale(1,1)"><rect fill="#ffffff" stroke="none" x="104" y="80" width="160.06103515625" height="22"/></g><g transform="translate(-86,-38) scale(1,1)"><path fill="none" stroke="#000000" d="M 104 80 L 264.06103515625 80 L 264.06103515625 102 L 104 102 L 104 80 Z Z" stroke-miterlimit="10"/></g><g transform="translate(-86,-38) scale(1,1)"><path fill="none" stroke="#000000" d="M 136.39453125 80 L 136.39453125 102" stroke-miterlimit="10"/></g><g transform="translate(-86,-38) scale(1,1)"><g><path fill="none" stroke="none"/><text fill="#000000" stroke="none" font-family="Arial" font-size="13px" font-style="normal" font-weight="normal" text-decoration="none" x="140.89453125" y="97.5">Кредитный договор</text></g></g><g transform="translate(-86,-38) scale(1,1)"><g><path fill="none" stroke="none"/><text fill="#000000" stroke="none" font-family="Arial" font-size="13px" font-style="normal" font-weight="bold" text-decoration="none" x="110.444091796875" y="97.5">link</text></g></g><g transform="translate(-86,-38) scale(1,1)"><rect fill="#ffffff" stroke="none" x="104" y="104" width="157.16015625" height="22"/></g><g transform="translate(-86,-38) scale(1,1)"><path fill="none" stroke="#000000" d="M 104 104 L 261.16015625 104 L 261.16015625 126 L 104 126 L 104 104 Z Z" stroke-miterlimit="10"/></g><g transform="translate(-86,-38) scale(1,1)"><path fill="none" stroke="#000000" d="M 136.39453125 104 L 136.39453125 126" stroke-miterlimit="10"/></g><g transform="translate(-86,-38) scale(1,1)"><g><path fill="none" stroke="none"/><text fill="#000000" stroke="none" font-family="Arial" font-size="13px" font-style="normal" font-weight="normal" text-decoration="none" x="140.89453125" y="121.5">Пластиковая карта</text></g></g><g transform="translate(-86,-38) scale(1,1)"><g><path fill="none" stroke="none"/><text fill="#000000" stroke="none" font-family="Arial" font-size="13px" font-style="normal" font-weight="bold" text-decoration="none" x="110.444091796875" y="121.5">link</text></g></g><g transform="translate(-86,-38) scale(1,1)"><rect fill="#ffffff" stroke="none" x="104" y="128" width="102.1005859375" height="22"/></g><g transform="translate(-86,-38) scale(1,1)"><path fill="none" stroke="#000000" d="M 104 128 L 206.1005859375 128 L 206.1005859375 150 L 104 150 L 104 128 Z Z" stroke-miterlimit="10"/></g><g transform="translate(-86,-38) scale(1,1)"><path fill="none" stroke="#000000" d="M 136.39453125 128 L 136.39453125 150" stroke-miterlimit="10"/></g><g transform="translate(-86,-38) scale(1,1)"><g><path fill="none" stroke="none"/><text fill="#000000" stroke="none" font-family="Arial" font-size="13px" font-style="normal" font-weight="normal" text-decoration="none" x="140.89453125" y="145.5">Физ. лицо</text></g></g><g transform="translate(-86,-38) scale(1,1)"><g><path fill="none" stroke="none"/><text fill="#000000" stroke="none" font-family="Arial" font-size="13px" font-style="normal" font-weight="bold" text-decoration="none" x="110.444091796875" y="145.5">link</text></g></g><g transform="translate(-86,-38) scale(1,1)"><rect fill="#ffffff" stroke="none" x="104" y="152" width="99" height="22"/></g><g transform="translate(-86,-38) scale(1,1)"><path fill="none" stroke="#000000" d="M 104 152 L 203 152 L 203 174 L 104 174 L 104 152 Z Z" stroke-miterlimit="10"/></g><g transform="translate(-86,-38) scale(1,1)"><path fill="none" stroke="#000000" d="M 136.39453125 152 L 136.39453125 174" stroke-miterlimit="10"/></g><g transform="translate(-86,-38) scale(1,1)"><g><path fill="none" stroke="none"/><text fill="#000000" stroke="none" font-family="Arial" font-size="13px" font-style="normal" font-weight="normal" text-decoration="none" x="140.89453125" y="169.5">Валюта</text></g></g><g transform="translate(-86,-38) scale(1,1)"><g><path fill="none" stroke="none"/><text fill="#000000" stroke="none" font-family="Arial" font-size="13px" font-style="normal" font-weight="bold" text-decoration="none" x="110.444091796875" y="169.5">link</text></g></g><g transform="translate(-86,-38) scale(1,1)"><rect fill="#ffffff" stroke="none" x="104" y="176" width="99.92333984375" height="22"/></g><g transform="translate(-86,-38) scale(1,1)"><path fill="none" stroke="#000000" d="M 104 176 L 203.92333984375 176 L 203.92333984375 198 L 104 198 L 104 176 Z Z" stroke-miterlimit="10"/></g><g transform="translate(-86,-38) scale(1,1)"><path fill="none" stroke="#000000" d="M 136.39453125 176 L 136.39453125 198" stroke-miterlimit="10"/></g><g transform="translate(-86,-38) scale(1,1)"><g><path fill="none" stroke="none"/><text fill="#000000" stroke="none" font-family="Arial" font-size="13px" font-style="normal" font-weight="normal" text-decoration="none" x="140.89453125" y="193.5">АС Банка</text></g></g><g transform="translate(-86,-38) scale(1,1)"><g><path fill="none" stroke="none"/><text fill="#000000" stroke="none" font-family="Arial" font-size="13px" font-style="normal" font-weight="bold" text-decoration="none" x="110.444091796875" y="193.5">link</text></g></g><g transform="translate(-86,-38) scale(1,1)"><g><path fill="none" stroke="none"/><text fill="#000000" stroke="none" font-family="Arial" font-size="13px" font-style="normal" font-weight="normal" text-decoration="none" x="101" y="66">ГРУППЫ СУЩНОСТЕЙ</text></g></g></g></svg>