<svg version="1.1" xmlns="http://www.w3.org/2000/svg" xmlns:xlink="http://www.w3.org/1999/xlink" width="154.63916015625" height="77"><defs/><g><text fill="#eeeeee" stroke="none" font-family="Arial" font-size="24px" font-style="normal" font-weight="normal" text-decoration="none" x="0" y="0">UNREGISTERED</text><text fill="#eeeeee" stroke="none" font-family="Arial" font-size="24px" font-style="normal" font-weight="normal" text-decoration="none" x="0" y="30">UNREGISTERED</text><text fill="#eeeeee" stroke="none" font-family="Arial" font-size="24px" font-style="normal" font-weight="normal" text-decoration="none" x="0" y="60">UNREGISTERED</text><g transform="translate(-134,-126) scale(1,1)"><rect fill="#C0C0C0" stroke="none" x="151" y="143" width="134.63916015625" height="57" opacity="0.2"/></g><g transform="translate(-134,-126) scale(1,1)"><rect fill="#ffffff" stroke="none" x="144" y="136" width="134.63916015625" height="57"/></g><g transform="translate(-134,-126) scale(1,1)"><path fill="none" stroke="#000000" d="M 144 136 L 278.63916015625 136 L 278.63916015625 193 L 144 193 L 144 136 Z Z" stroke-miterlimit="10"/></g><g transform="translate(-134,-126) scale(1,1)"><path fill="none" stroke="#000000" d="M 144 161 L 278.63916015625 161" stroke-miterlimit="10"/></g><g transform="translate(-134,-126) scale(1,1)"><path fill="none" stroke="#000000" d="M 144 184 L 278.63916015625 184" stroke-miterlimit="10"/></g><g transform="translate(-134,-126) scale(1,1)"><g><path fill="none" stroke="none"/><text fill="#000000" stroke="none" font-family="Arial" font-size="13px" font-style="normal" font-weight="bold" text-decoration="none" x="160.506591796875" y="155.5">Волеизъявление</text></g></g><g transform="translate(-134,-126) scale(1,1)"><g><path fill="none" stroke="none"/><text fill="#000000" stroke="none" font-family="Arial" font-size="13px" font-style="normal" font-weight="normal" text-decoration="none" x="149" y="178.5">+ID Волеизъявления</text></g></g></g></svg>