<svg version="1.1" xmlns="http://www.w3.org/2000/svg" xmlns:xlink="http://www.w3.org/1999/xlink" width="128.4423828125" height="137"><defs/><g><text fill="#eeeeee" stroke="none" font-family="Arial" font-size="24px" font-style="normal" font-weight="normal" text-decoration="none" x="0" y="0">UNREGISTERED</text><text fill="#eeeeee" stroke="none" font-family="Arial" font-size="24px" font-style="normal" font-weight="normal" text-decoration="none" x="0" y="30">UNREGISTERED</text><text fill="#eeeeee" stroke="none" font-family="Arial" font-size="24px" font-style="normal" font-weight="normal" text-decoration="none" x="0" y="60">UNREGISTERED</text><text fill="#eeeeee" stroke="none" font-family="Arial" font-size="24px" font-style="normal" font-weight="normal" text-decoration="none" x="0" y="90">UNREGISTERED</text><text fill="#eeeeee" stroke="none" font-family="Arial" font-size="24px" font-style="normal" font-weight="normal" text-decoration="none" x="0" y="120">UNREGISTERED</text><g transform="translate(-110,-38) scale(1,1)"><rect fill="#C0C0C0" stroke="none" x="127" y="55" width="108.4423828125" height="117" opacity="0.2"/></g><g transform="translate(-110,-38) scale(1,1)"><rect fill="#ffffff" stroke="none" x="120" y="48" width="108.4423828125" height="117"/></g><g transform="translate(-110,-38) scale(1,1)"><path fill="none" stroke="#000000" d="M 120 48 L 228.4423828125 48 L 228.4423828125 165 L 120 165 L 120 48 Z Z" stroke-miterlimit="10"/></g><g transform="translate(-110,-38) scale(1,1)"><path fill="none" stroke="#000000" d="M 120 73 L 228.4423828125 73" stroke-miterlimit="10"/></g><g transform="translate(-110,-38) scale(1,1)"><path fill="none" stroke="#000000" d="M 120 156 L 228.4423828125 156" stroke-miterlimit="10"/></g><g transform="translate(-110,-38) scale(1,1)"><g><path fill="none" stroke="none"/><text fill="#000000" stroke="none" font-family="Arial" font-size="13px" font-style="normal" font-weight="bold" text-decoration="none" x="144.3681640625" y="67.5">Физ. лицо</text></g></g><g transform="translate(-110,-38) scale(1,1)"><g><path fill="none" stroke="none"/><text fill="#000000" stroke="none" font-family="Arial" font-size="13px" font-style="normal" font-weight="normal" text-decoration="none" x="125" y="90.5">+Имя[1]</text></g></g><g transform="translate(-110,-38) scale(1,1)"><g><path fill="none" stroke="none"/><text fill="#000000" stroke="none" font-family="Arial" font-size="13px" font-style="normal" font-weight="normal" text-decoration="none" x="125" y="105.5">+Фамилия[1]</text></g></g><g transform="translate(-110,-38) scale(1,1)"><g><path fill="none" stroke="none"/><text fill="#000000" stroke="none" font-family="Arial" font-size="13px" font-style="normal" font-weight="normal" text-decoration="none" x="125" y="120.5">+Отчество[0..*]</text></g></g><g transform="translate(-110,-38) scale(1,1)"><g><path fill="none" stroke="none"/><text fill="#000000" stroke="none" font-family="Arial" font-size="13px" font-style="normal" font-weight="normal" text-decoration="none" x="125" y="135.5">+Дата орждения</text></g></g><g transform="translate(-110,-38) scale(1,1)"><g><path fill="none" stroke="none"/><text fill="#000000" stroke="none" font-family="Arial" font-size="13px" font-style="normal" font-weight="normal" text-decoration="none" x="125" y="150.5">+ID  FaceIT[0..1]</text></g></g></g></svg>